<?xml version="1.0" encoding="utf-8"?>
<!-- Generator: Adobe Illustrator 24.0.0, SVG Export Plug-In . SVG Version: 6.00 Build 0)  -->
<svg version="1.1" id="Capa_1" xmlns="http://www.w3.org/2000/svg" xmlns:xlink="http://www.w3.org/1999/xlink" x="0px" y="0px"
	 viewBox="0 0 42.9 42.9" style="enable-background:new 0 0 42.9 42.9;" xml:space="preserve">
<style type="text/css">
	.st0{fill:#FFFFFF;}
</style>
<g>
	<path class="st0" d="M16.2,22.1c-0.1,0.6-0.2,1.3-0.3,1.9c-0.3,1.6-0.6,3.1-0.5,4.7c0.1,2.7,1.9,4.9,4.5,5.5c2,0.5,4,0.4,6.4-0.4
		c5.5-1.7,9.9-5.1,13.6-10.4c2.1-3.1,3.1-6.1,3.1-9.2c-0.1-2.6-1.7-4.8-4.1-5.5c-2.1-0.6-4.1-0.5-6.5,0.2c0.3,0.1,0.7,0.3,1,0.6
		c1.7,1.3,2.3,3.3,1.7,5.8c-0.8,3.1-2.6,5.7-4.2,7.9c-0.3,0.5-0.7,1-1.2,1.5c-0.8,0.9-1.5,1.4-2,1.4c-0.3,0-0.6-0.1-0.8-0.3
		c-0.2-0.2-0.3-0.5-0.2-0.8l0-0.3c0.6-3.7,1-7,1-10.4c-0.1-2.7-1.8-4.9-4.5-5.5c-1.2-0.3-2.5-0.3-4.1-0.1c-1.7,0.3-3.4,0.8-5.1,1.6
		c-0.6,0.3-1.1,0.6-1.5,0.8c2.2,0.9,3.6,2.7,4.1,5.2c0.4,1.8,0.1,3.5-0.1,5.2L16.2,22.1z M5.3,34.4c1.7,0.2,3.5,0.1,5.3-0.4
		c-0.6-0.3-1.2-0.7-1.7-1.2c-0.9-1.1-1.3-2.4-1.1-3.8c0.2-1.2,0.5-2.4,1-3.6c0.9-2,2.1-3.7,3.3-5.4l0.1-0.1c1.1-1.6,0.9-3.6-0.7-5
		c-0.6-0.5-1.3-0.8-2.2-0.8c-1,0-2,0.4-2.7,1.1c-1.5,1.4-2.6,2.7-3.5,4.1c-2.3,3.5-3.3,6.3-3.2,9.4C0.1,31.7,2.2,34,5.3,34.4z"/>
</g>
</svg>
